<svg width="174" height="23" viewBox="0 0 174 23" fill="none" xmlns="http://www.w3.org/2000/svg">
	<g opacity="0.8" clip-path="url(#clip0_1951_12220)">
		<path d="M15.2024 8.6792C17.1036 8.6792 18.6733 8.8641 19.9117 9.23392C21.1501 9.60373 22.1216 10.108 22.8262 10.7468C23.4958 11.3383 24.0077 12.0901 24.3149 12.9331C24.6043 13.7578 24.7504 14.6268 24.7467 15.5017C24.7505 16.3813 24.5864 17.2535 24.2633 18.0703C23.9169 18.9199 23.3692 19.6707 22.6683 20.2567C21.9304 20.8965 20.9525 21.4008 19.7345 21.7695C18.5165 22.1383 17.0064 22.3232 15.2041 22.3243H0V8.6792H15.2024ZM5.278 18.0606H14.9914C15.6636 18.0699 16.3351 18.0154 16.9972 17.8979C17.4628 17.8233 17.9104 17.6611 18.3167 17.4197C18.6281 17.229 18.8778 16.9509 19.0353 16.6193C19.182 16.2648 19.2576 15.8844 19.2576 15.5001C19.2576 15.1159 19.182 14.7354 19.0353 14.3809C18.8773 14.0497 18.6278 13.7717 18.3167 13.5806C17.9101 13.3398 17.4626 13.1776 16.9972 13.1023C16.3351 12.9848 15.6636 12.9303 14.9914 12.9396H5.278V18.0606Z" fill="white" />
		<path d="M54.0528 8.6792V18.2769H66.3633V22.3275H48.7732V8.6792H54.0528Z" fill="white" />
		<path d="M86.4442 14.5501V8.69384H91.7222V15.5017C91.7222 16.7109 91.5004 17.738 91.0568 18.5828C90.6202 19.4213 89.9862 20.1386 89.2104 20.6715C88.3765 21.2408 87.4563 21.6694 86.4861 21.9404C85.4053 22.2489 84.2995 22.4596 83.1817 22.5699C81.9922 22.691 80.7973 22.7513 79.6018 22.7505C78.3204 22.7505 77.082 22.6903 75.8866 22.5699C74.761 22.4623 73.6474 22.2516 72.5596 21.9404C71.6047 21.674 70.7018 21.2448 69.89 20.6715C69.1354 20.1324 68.5226 19.4154 68.1049 18.5828C67.6753 17.7369 67.4604 16.7099 67.4604 15.5017V8.6792H72.7401V14.5501C72.7401 15.6888 73.0145 16.5564 73.5633 17.1529C74.1122 17.7493 74.8968 18.1582 75.9172 18.3794C77.131 18.6157 78.3658 18.7248 79.6018 18.7048C80.8207 18.7226 82.0381 18.6136 83.2348 18.3794C84.2606 18.1625 85.0522 17.7537 85.6096 17.1529C86.1671 16.5521 86.4452 15.6845 86.4442 14.5501Z" fill="white" />
		<path d="M92.821 8.6792H98.099V22.3243H92.821V8.6792ZM104.078 15.6091V14.4151L116.261 22.3243H108.404L98.0572 15.0755L107.601 8.6792H115.119L104.078 15.6091Z" fill="white" />
		<path d="M123.819 22.3243L116.26 8.6792H122.214L128.591 21.3645L126.585 21.4084L132.561 8.6792H138.938L144.913 21.4084L142.906 21.3645L149.284 8.6792H155.153L147.679 22.3243H140.542L134.713 10.833H136.783L130.954 22.3243H123.819Z" fill="white" />
		<path d="M161.965 6.19515C163.55 6.19515 164.836 4.89729 164.836 3.29631C164.836 1.69532 163.55 0.397461 161.965 0.397461C160.379 0.397461 159.094 1.69532 159.094 3.29631C159.094 4.89729 160.379 6.19515 161.965 6.19515Z" fill="#A6C855" />
		<path d="M35.6393 6.19515C37.2249 6.19515 38.5103 4.89729 38.5103 3.29631C38.5103 1.69532 37.2249 0.397461 35.6393 0.397461C34.0537 0.397461 32.7683 1.69532 32.7683 3.29631C32.7683 4.89729 34.0537 6.19515 35.6393 6.19515Z" fill="#A6C855" />
		<path d="M38.5313 8.6792H32.6621L23.6028 22.3243H29.4108L30.7255 20.2567L33.4708 15.9393L35.6136 12.5704L37.8853 16.1118L38.0915 16.4339L38.4911 17.0585L40.542 20.2567L41.868 22.3243H47.6744L38.5313 8.6792Z" fill="white" />
		<path d="M164.857 8.6792H158.988L149.929 22.3243H155.735L157.051 20.2567L159.797 15.9393L161.94 12.5704L164.21 16.1118L164.417 16.4339L164.817 17.0585L166.868 20.2567L168.194 22.3243H174L164.857 8.6792Z" fill="white" />
	</g>
	<defs>
		<clipPath id="clip0_1951_12220">
			<rect width="174" height="22.353" fill="white" transform="translate(0 0.397461)" />
		</clipPath>
	</defs>
</svg>
