<svg width="1440" height="856" viewBox="0 0 1440 856" fill="none" xmlns="http://www.w3.org/2000/svg">
	<path d="M56.1803 -41.1973H-20.8397L-4.90972 -13.7804L-2.04972 -8.86738L3.47028 0.635508L31.8003 49.3754L50.1203 80.9031H130.32L56.1803 -41.1973Z" stroke="#A8C956" stroke-opacity="0.08" stroke-width="1.5" stroke-miterlimit="10" />
	<path d="M197.45 202.98H120.43L136.36 175.575L139.22 170.662L144.74 161.159L173.07 112.408L191.39 80.9023H271.6L197.45 202.98Z" stroke="#A8C956" stroke-opacity="0.08" stroke-width="1.5" stroke-miterlimit="10" />
	<path d="M43.3003 202.98L-30.1597 80.9023H50.0503L68.2203 112.408L106.14 178.193L120.43 202.98H43.3003Z" stroke="#A8C956" stroke-opacity="0.08" stroke-width="1.5" stroke-miterlimit="10" />
	<path d="M499.34 -41.1973H422.32L438.25 -13.7804L441.11 -8.86738L446.63 0.635508L474.96 49.3754L493.27 80.9031H573.48L499.34 -41.1973Z" stroke="#A8C956" stroke-opacity="0.08" stroke-width="1.5" stroke-miterlimit="10" />
	<path d="M345.19 -41.1973L271.73 80.9031H351.93L370.1 49.3754L408.03 -16.3984L422.32 -41.1973H345.19Z" stroke="#A8C956" stroke-opacity="0.08" stroke-width="1.5" stroke-miterlimit="10" />
	<path d="M640.61 202.98H563.59L579.52 175.575L582.38 170.662L587.9 161.159L616.23 112.408L634.54 80.9023H714.75L640.61 202.98Z" stroke="#A8C956" stroke-opacity="0.08" stroke-width="1.5" stroke-miterlimit="10" />
	<path d="M486.46 202.98L413 80.9023H493.2L511.37 112.408L549.3 178.193L563.59 202.98H486.46Z" stroke="#A8C956" stroke-opacity="0.08" stroke-width="1.5" stroke-miterlimit="10" />
	<path d="M942.491 -41.1973H865.471L881.401 -13.7804L884.261 -8.86738L889.781 0.635508L918.111 49.3754L936.431 80.9031H1016.64L942.491 -41.1973Z" stroke="#A8C956" stroke-opacity="0.08" stroke-width="1.5" stroke-miterlimit="10" />
	<path d="M788.34 -41.1973L714.88 80.9031H795.09L813.26 49.3754L851.18 -16.3984L865.47 -41.1973H788.34Z" stroke="#A8C956" stroke-opacity="0.08" stroke-width="1.5" stroke-miterlimit="10" />
	<path d="M1083.76 202.98H1006.74L1022.67 175.575L1025.53 170.662L1031.06 161.159L1059.38 112.408L1077.7 80.9023H1157.91L1083.76 202.98Z" stroke="#A8C956" stroke-opacity="0.08" stroke-width="1.5" stroke-miterlimit="10" />
	<path d="M929.61 202.98L856.15 80.9023H936.36L954.53 112.408L992.45 178.193L1006.74 202.98H929.61Z" stroke="#A8C956" stroke-opacity="0.08" stroke-width="1.5" stroke-miterlimit="10" />
	<path d="M1385.65 -41.1973H1308.63L1324.56 -13.7804L1327.42 -8.86738L1332.94 0.635508L1361.27 49.3754L1379.59 80.9031H1459.79L1385.65 -41.1973Z" stroke="#A8C956" stroke-opacity="0.08" stroke-width="1.5" stroke-miterlimit="10" />
	<path d="M1231.5 -41.1973L1158.04 80.9031H1238.25L1256.41 49.3754L1294.34 -16.3984L1308.63 -41.1973H1231.5Z" stroke="#A8C956" stroke-opacity="0.08" stroke-width="1.5" stroke-miterlimit="10" />
	<path d="M1372.77 202.98L1299.31 80.9023H1379.52L1397.68 112.408L1435.61 178.193L1449.9 202.98H1372.77Z" stroke="#A8C956" stroke-opacity="0.08" stroke-width="1.5" stroke-miterlimit="10" />
	<path d="M47.6701 447.16H-29.3499L-13.4199 419.754L-10.5599 414.841L-5.03986 405.338L23.2901 356.598L41.6001 325.07H121.81L47.6701 447.16Z" stroke="#A8C956" stroke-opacity="0.08" stroke-width="1.5" stroke-miterlimit="10" />
	<path d="M349.55 202.98H272.53L288.46 230.397L291.32 235.31L296.85 244.813L325.17 293.553L343.49 325.07H423.7L349.55 202.98Z" stroke="#A8C956" stroke-opacity="0.08" stroke-width="1.5" stroke-miterlimit="10" />
	<path d="M195.4 202.98L121.94 325.07H202.15L220.32 293.553L258.24 227.779L272.53 202.98H195.4Z" stroke="#A8C956" stroke-opacity="0.08" stroke-width="1.5" stroke-miterlimit="10" />
	<path d="M490.82 447.16H413.8L429.73 419.754L432.59 414.841L438.12 405.338L466.44 356.598L484.76 325.07H564.97L490.82 447.16Z" stroke="#A8C956" stroke-opacity="0.08" stroke-width="1.5" stroke-miterlimit="10" />
	<path d="M336.67 447.16L263.21 325.07H343.42L361.59 356.598L399.51 422.372L413.8 447.16H336.67Z" stroke="#A8C956" stroke-opacity="0.08" stroke-width="1.5" stroke-miterlimit="10" />
	<path d="M792.71 202.98H715.69L731.62 230.397L734.48 235.31L740 244.813L768.33 293.553L786.65 325.07H866.85L792.71 202.98Z" stroke="#A8C956" stroke-opacity="0.08" stroke-width="1.5" stroke-miterlimit="10" />
	<path d="M638.561 202.98L565.101 325.07H645.311L663.481 293.553L701.401 227.779L715.691 202.98H638.561Z" stroke="#A8C956" stroke-opacity="0.08" stroke-width="1.5" stroke-miterlimit="10" />
	<path d="M933.98 447.16H856.96L872.89 419.754L875.75 414.841L881.27 405.338L909.6 356.598L927.92 325.07H1008.12L933.98 447.16Z" stroke="#A8C956" stroke-opacity="0.08" stroke-width="1.5" stroke-miterlimit="10" />
	<path d="M779.83 447.16L706.37 325.07H786.58L804.75 356.598L842.67 422.372L856.96 447.16H779.83Z" stroke="#A8C956" stroke-opacity="0.08" stroke-width="1.5" stroke-miterlimit="10" />
	<path d="M1235.86 202.98H1158.85L1174.78 230.397L1177.63 235.31L1183.16 244.813L1211.48 293.553L1229.8 325.07H1310.01L1235.86 202.98Z" stroke="#A8C956" stroke-opacity="0.08" stroke-width="1.5" stroke-miterlimit="10" />
	<path d="M1081.71 202.98L1008.26 325.07H1088.46L1106.63 293.553L1144.56 227.779L1158.85 202.98H1081.71Z" stroke="#A8C956" stroke-opacity="0.08" stroke-width="1.5" stroke-miterlimit="10" />
	<path d="M1377.13 447.16H1300.12L1316.05 419.754L1318.9 414.841L1324.43 405.338L1352.76 356.598L1371.07 325.07H1451.28L1377.13 447.16Z" stroke="#A8C956" stroke-opacity="0.08" stroke-width="1.5" stroke-miterlimit="10" />
	<path d="M1222.98 447.16L1149.53 325.07H1229.73L1247.9 356.598L1285.83 422.372L1300.12 447.16H1222.98Z" stroke="#A8C956" stroke-opacity="0.08" stroke-width="1.5" stroke-miterlimit="10" />
	<path d="M203.33 447.16H126.32L142.25 474.577L145.1 479.49L150.63 488.993L178.96 537.733L197.27 569.261H277.48L203.33 447.16Z" stroke="#A8C956" stroke-opacity="0.08" stroke-width="1.5" stroke-miterlimit="10" />
	<path d="M49.1902 447.16L-24.2698 569.261H55.9302L74.1002 537.733L112.03 471.959L126.32 447.16H49.1902Z" stroke="#A8C956" stroke-opacity="0.08" stroke-width="1.5" stroke-miterlimit="10" />
	<path d="M344.61 691.349H267.59L283.52 663.932L286.38 659.019L291.9 649.516L320.23 600.776L338.54 569.26H418.75L344.61 691.349Z" stroke="#A8C956" stroke-opacity="0.08" stroke-width="1.5" stroke-miterlimit="10" />
	<path d="M190.46 691.349L117 569.26H197.2L215.37 600.776L253.3 666.561L267.59 691.349H190.46Z" stroke="#A8C956" stroke-opacity="0.08" stroke-width="1.5" stroke-miterlimit="10" />
	<path d="M646.491 447.16H569.471L585.401 474.577L588.261 479.49L593.781 488.993L622.111 537.733L640.431 569.261H720.641L646.491 447.16Z" stroke="#A8C956" stroke-opacity="0.08" stroke-width="1.5" stroke-miterlimit="10" />
	<path d="M492.34 447.16L418.88 569.261H499.09L517.26 537.733L555.18 471.959L569.47 447.16H492.34Z" stroke="#A8C956" stroke-opacity="0.08" stroke-width="1.5" stroke-miterlimit="10" />
	<path d="M787.76 691.349H710.74L726.67 663.932L729.53 659.019L735.05 649.516L763.38 600.776L781.7 569.26H861.91L787.76 691.349Z" stroke="#A8C956" stroke-opacity="0.08" stroke-width="1.5" stroke-miterlimit="10" />
	<path d="M633.61 691.349L560.15 569.26H640.36L658.53 600.776L696.45 666.561L710.74 691.349H633.61Z" stroke="#A8C956" stroke-opacity="0.08" stroke-width="1.5" stroke-miterlimit="10" />
	<path d="M1089.65 447.16H1012.63L1028.56 474.577L1031.42 479.49L1036.94 488.993L1065.27 537.733L1083.59 569.261H1163.79L1089.65 447.16Z" stroke="#A8C956" stroke-opacity="0.08" stroke-width="1.5" stroke-miterlimit="10" />
	<path d="M935.5 447.16L862.04 569.261H942.25L960.41 537.733L998.34 471.959L1012.63 447.16H935.5Z" stroke="#A8C956" stroke-opacity="0.08" stroke-width="1.5" stroke-miterlimit="10" />
	<path d="M1230.92 691.349H1153.9L1169.83 663.932L1172.69 659.019L1178.21 649.516L1206.54 600.776L1224.86 569.26H1305.06L1230.92 691.349Z" stroke="#A8C956" stroke-opacity="0.08" stroke-width="1.5" stroke-miterlimit="10" />
	<path d="M1076.77 691.349L1003.31 569.26H1083.52L1101.68 600.776L1139.61 666.561L1153.9 691.349H1076.77Z" stroke="#A8C956" stroke-opacity="0.08" stroke-width="1.5" stroke-miterlimit="10" />
	<path d="M1378.65 447.16L1305.19 569.261H1385.4L1403.57 537.733L1441.49 471.959L1455.79 447.16H1378.65Z" stroke="#A8C956" stroke-opacity="0.08" stroke-width="1.5" stroke-miterlimit="10" />
	<path d="M59.7502 691.35H-17.2698L-1.33977 718.755L1.52022 723.668L7.04023 733.182L35.3702 781.922L53.6802 813.439H133.89L59.7502 691.35Z" stroke="#A8C956" stroke-opacity="0.08" stroke-width="1.5" stroke-miterlimit="10" />
	<path d="M201.02 935.529H124L139.93 908.112L142.79 903.199L148.31 893.696L176.64 844.956L194.95 813.439H275.16L201.02 935.529Z" stroke="#A8C956" stroke-opacity="0.08" stroke-width="1.5" stroke-miterlimit="10" />
	<path d="M46.8702 935.529L-26.5898 813.439H53.6102L71.7802 844.956L109.71 910.73L124 935.529H46.8702Z" stroke="#A8C956" stroke-opacity="0.08" stroke-width="1.5" stroke-miterlimit="10" />
	<path d="M502.9 691.35H425.88L441.81 718.755L444.67 723.668L450.2 733.182L478.52 781.922L496.84 813.439H577.05L502.9 691.35Z" stroke="#A8C956" stroke-opacity="0.08" stroke-width="1.5" stroke-miterlimit="10" />
	<path d="M348.75 691.35L275.29 813.439H355.5L373.67 781.922L411.59 716.137L425.88 691.35H348.75Z" stroke="#A8C956" stroke-opacity="0.08" stroke-width="1.5" stroke-miterlimit="10" />
	<path d="M644.17 935.529H567.15L583.08 908.112L585.94 903.199L591.47 893.696L619.79 844.956L638.11 813.439H718.32L644.17 935.529Z" stroke="#A8C956" stroke-opacity="0.08" stroke-width="1.5" stroke-miterlimit="10" />
	<path d="M490.021 935.529L416.561 813.439H496.771L514.941 844.956L552.861 910.73L567.151 935.529H490.021Z" stroke="#A8C956" stroke-opacity="0.08" stroke-width="1.5" stroke-miterlimit="10" />
	<path d="M946.06 691.35H869.04L884.97 718.755L887.83 723.668L893.35 733.182L921.68 781.922L940 813.439H1020.2L946.06 691.35Z" stroke="#A8C956" stroke-opacity="0.08" stroke-width="1.5" stroke-miterlimit="10" />
	<path d="M791.91 691.35L718.45 813.439H798.66L816.83 781.922L854.75 716.137L869.04 691.35H791.91Z" stroke="#A8C956" stroke-opacity="0.08" stroke-width="1.5" stroke-miterlimit="10" />
	<path d="M1087.33 935.529H1010.31L1026.24 908.112L1029.1 903.199L1034.62 893.696L1062.95 844.956L1081.27 813.439H1161.47L1087.33 935.529Z" stroke="#A8C956" stroke-opacity="0.08" stroke-width="1.5" stroke-miterlimit="10" />
	<path d="M933.181 935.529L859.721 813.439H939.931L958.101 844.956L996.021 910.73L1010.31 935.529H933.181Z" stroke="#A8C956" stroke-opacity="0.08" stroke-width="1.5" stroke-miterlimit="10" />
	<path d="M1389.21 691.35H1312.2L1328.13 718.755L1330.98 723.668L1336.51 733.182L1364.84 781.922L1383.15 813.439H1463.36L1389.21 691.35Z" stroke="#A8C956" stroke-opacity="0.08" stroke-width="1.5" stroke-miterlimit="10" />
	<path d="M1235.07 691.35L1161.61 813.439H1241.81L1259.98 781.922L1297.9 716.137L1312.2 691.35H1235.07Z" stroke="#A8C956" stroke-opacity="0.08" stroke-width="1.5" stroke-miterlimit="10" />
	<path d="M1376.34 935.529L1302.88 813.439H1383.08L1401.25 844.956L1439.17 910.73L1453.47 935.529H1376.34Z" stroke="#A8C956" stroke-opacity="0.08" stroke-width="1.5" stroke-miterlimit="10" />
</svg>
